# xmcd
#
# Track frame offsets: 
#        150
#        19310
#        37721
#        59073
#        75106
#        92021
#        108610
#        122603
#        136497
#        157501
#
# Disc length: 2511 seconds
#
# Revision: 5
# Processed by: cddbd v1.5.2PL0 Copyright (c) Steve Scherf et al.
# Submitted via: ExactAudioCopyFreeDBPlugin 1.0
#
DISCID=6f09cd0a
DTITLE=The Killers - Day and Age
DYEAR=2008
DGENRE=Rock
TTITLE0=Losing Touch
TTITLE1=Human
TTITLE2=Spaceman
TTITLE3=Joy Ride
TTITLE4=A Dustland Fairytale
TTITLE5=This Is Your Life
TTITLE6=I Can't Stay
TTITLE7=Neon Tiger
TTITLE8=The World We Live In
TTITLE9=Goodnight, Travel Well
EXTD=
EXTT0=
EXTT1=
EXTT2=
EXTT3=
EXTT4=
EXTT5=
EXTT6=
EXTT7=
EXTT8=
EXTT9=
PLAYORDER=
